<svg width="53" height="53" viewBox="0 0 53 53" fill="none" xmlns="http://www.w3.org/2000/svg">
<path d="M50.5 15.44V49.9499C50.5 50.2299 50.27 50.4699 49.9801 50.4699H47.4601C47.4501 50.4699 47.4501 50.4699 47.4401 50.4599C47.7001 50.43 47.89 50.2099 47.89 49.9499V14.53L26.5 3.21991L27.11 2.89996C27.5499 2.66998 28.08 2.66998 28.52 2.89996L49.7001 14.1C50.1901 14.3701 50.5 14.8799 50.5 15.44Z" fill="#3B2F2F"/>
<path d="M49.9805 50.97H47.46C47.3271 50.97 47.1807 50.9075 47.0869 50.8137C46.9512 50.678 46.9053 50.4768 46.9678 50.2961C47.0312 50.1145 47.1924 49.9856 47.3828 49.9631L47.3896 14.8303L26.2666 3.66235C26.1025 3.57544 26 3.40454 26 3.219C26 3.03345 26.1035 2.86353 26.2676 2.77759L26.8779 2.45728C27.4658 2.15161 28.1641 2.14966 28.752 2.4563L49.9336 13.6575C50.5947 14.0227 51 14.7034 51 15.4397V49.9495C51 50.512 50.543 50.97 49.9805 50.97ZM48.3896 49.97H49.9805L50 15.4397C50 15.0676 49.793 14.7219 49.459 14.5374L28.2871 3.34204C28.0801 3.23364 27.8457 3.20337 27.6182 3.24536L48.123 14.0872C48.2871 14.1741 48.3896 14.344 48.3896 14.5295V49.9495C48.3896 49.9563 48.3896 49.9631 48.3896 49.97Z" fill="#3B2F2F"/>
<path d="M47.8896 21.3H2.50488C2.22852 21.3 2.00488 21.0764 2.00488 20.8V14.5295C2.00488 14.2532 2.22852 14.0295 2.50488 14.0295H47.8896C48.166 14.0295 48.3896 14.2532 48.3896 14.5295V20.8C48.3896 21.0764 48.166 21.3 47.8896 21.3ZM3.00488 20.3H47.3896V15.0295H3.00488V20.3Z" fill="#3B2F2F"/>
<path d="M47.8898 15.0295H2.5002C2.27071 15.0295 2.07051 14.8733 2.01485 14.6497C1.95919 14.427 2.06368 14.1946 2.2668 14.0872L24.967 2.08716C25.1135 2.01099 25.2873 2.01099 25.4338 2.08716L48.1232 14.0872C48.3264 14.1946 48.4309 14.427 48.3752 14.6497C48.3195 14.8733 48.1193 15.0295 47.8898 15.0295ZM4.51583 14.0295H45.8752L25.2004 3.09497L4.51583 14.0295Z" fill="#3B2F2F"/>
<path d="M5.54004 50.97H3.03027C2.46191 50.97 2 50.5129 2 49.9504V20.8C2 20.5237 2.22363 20.3 2.5 20.3C2.77637 20.3 3 20.5237 3 20.8V49.9504L5.54004 49.97L8.02344 25.5706C8.0498 25.2952 8.31348 25.0901 8.57031 25.1233C8.8457 25.1506 9.0459 25.3958 9.01758 25.6702L6.55664 50.05C6.51855 50.5608 6.07129 50.97 5.54004 50.97Z" fill="#3B2F2F"/>
<path d="M47.3703 50.97H44.8498C44.3313 50.97 43.8938 50.5784 43.8332 50.0579L41.3733 25.6702C41.345 25.3958 41.5452 25.1506 41.8205 25.1233C42.0735 25.0891 42.3401 25.2952 42.3674 25.5706L44.8274 49.9504L47.3703 49.97L47.3899 20.8C47.3899 20.5237 47.6135 20.3 47.8899 20.3C48.1662 20.3 48.3899 20.5237 48.3899 20.8V49.9504C48.3899 50.5129 47.9328 50.97 47.3703 50.97Z" fill="#3B2F2F"/>
<path d="M8.17796 26.1331C5.0764 26.1331 2.42503 23.8694 2.00999 20.8684C1.99046 20.7249 2.03343 20.5803 2.12815 20.4719C2.22288 20.3625 2.36058 20.3 2.50511 20.3H13.8518C13.9963 20.3 14.134 20.3625 14.2287 20.4719C14.3235 20.5803 14.3664 20.7249 14.3469 20.8684C13.9319 23.8694 11.2805 26.1331 8.17796 26.1331ZM3.11351 21.3C3.69261 23.5217 5.77366 25.1331 8.17796 25.1331C10.5823 25.1331 12.6643 23.5217 13.2434 21.3H3.11351Z" fill="#3B2F2F"/>
<path d="M19.5246 26.1331C16.4231 26.1331 13.7717 23.8694 13.3567 20.8684C13.3371 20.7249 13.3801 20.5803 13.4748 20.4719C13.5696 20.3625 13.7073 20.3 13.8518 20.3H25.1975C25.342 20.3 25.4797 20.3625 25.5744 20.4719C25.6692 20.5803 25.7121 20.7249 25.6926 20.8684C25.2776 23.8694 22.6262 26.1331 19.5246 26.1331ZM14.4602 21.3C15.0393 23.5217 17.1203 25.1331 19.5246 25.1331C21.9289 25.1331 24.01 23.5217 24.5891 21.3H14.4602Z" fill="#3B2F2F"/>
<path d="M30.8713 26.1331C27.7688 26.1331 25.1174 23.8694 24.7024 20.8684C24.6828 20.7249 24.7258 20.5803 24.8205 20.4719C24.9153 20.3625 25.053 20.3 25.1975 20.3H36.5442C36.6887 20.3 36.8264 20.3625 36.9211 20.4719C37.0158 20.5803 37.0588 20.7249 37.0393 20.8684C36.6242 23.8694 33.9729 26.1331 30.8713 26.1331ZM25.8059 21.3C26.385 23.5217 28.467 25.1331 30.8713 25.1331C33.2756 25.1331 35.3567 23.5217 35.9358 21.3H25.8059Z" fill="#3B2F2F"/>
<path d="M42.217 26.1331C39.1155 26.1331 36.4641 23.8694 36.0491 20.8684C36.0295 20.7249 36.0725 20.5803 36.1672 20.4719C36.2619 20.3625 36.3996 20.3 36.5442 20.3H47.8899C48.0344 20.3 48.1721 20.3625 48.2668 20.4719C48.3616 20.5803 48.4045 20.7249 48.385 20.8684C47.97 23.8694 45.3186 26.1331 42.217 26.1331ZM37.1526 21.3C37.7317 23.5217 39.8127 25.1331 42.217 25.1331C44.6213 25.1331 46.7024 23.5217 47.2815 21.3H37.1526Z" fill="#3B2F2F"/>
</svg>
