<svg width="53" height="53" viewBox="0 0 53 53" fill="none" xmlns="http://www.w3.org/2000/svg">
<path d="M50.2945 4.6452L47.3045 10.5052L47.9845 10.4553C48.8545 10.3852 49.6045 11.0451 49.6645 11.9052C49.7245 12.7752 49.0745 13.5252 48.2145 13.5851L45.6445 13.7752L38.0144 28.7452C37.8245 29.1052 37.7945 29.5252 37.9045 29.9052L43.4645 48.2252C43.6045 48.6652 43.2745 49.1152 42.8145 49.1152H40.8145C41.2745 49.1152 41.6045 48.6652 41.4645 48.2252L35.9045 29.9052C35.7945 29.5252 35.8245 29.1052 36.0144 28.7452L43.6445 13.7752L46.2145 13.5851C47.0745 13.5252 47.7245 12.7752 47.6645 11.9052C47.6045 11.0451 46.8545 10.3852 45.9845 10.4553L45.3045 10.5052L48.2945 4.6452C48.3845 4.48517 48.3745 4.29511 48.2745 4.13519C48.1845 3.97516 48.0144 3.88519 47.8245 3.88519H49.8245C50.0144 3.88519 50.1845 3.97516 50.2745 4.13519C50.3745 4.29511 50.3845 4.48517 50.2945 4.6452Z" fill="#3B2F2F"/>
<path d="M42.8148 49.6147H40.8148C40.5384 49.6147 40.3148 49.3911 40.3148 49.1147C40.3148 48.8384 40.5384 48.6147 40.8148 48.6147C40.8944 48.6147 40.9408 48.5679 40.9613 48.5396C40.9818 48.5112 41.0126 48.4536 40.9882 48.3765L35.4261 30.0503C35.2758 29.5298 35.3295 28.9712 35.5726 28.5122L43.1996 13.5483C43.2787 13.3921 43.434 13.2896 43.6083 13.2759L46.1781 13.0864C46.764 13.0454 47.2064 12.5308 47.1659 11.939C47.1464 11.6538 47.015 11.3931 46.7972 11.2056C46.5824 11.021 46.3163 10.9321 46.0248 10.9536L45.3412 11.0044C45.1586 11.021 44.9877 10.9331 44.8881 10.7817C44.788 10.6313 44.7772 10.439 44.8592 10.2778L47.8495 4.41748C47.6825 4.41748 47.5297 4.32959 47.4354 4.19971C47.3661 4.11377 47.3246 4.00439 47.3246 3.88525C47.3246 3.60889 47.5482 3.38525 47.8246 3.38525H49.8246C50.2015 3.38525 50.5336 3.57373 50.7113 3.89111C50.8968 4.18799 50.9095 4.56396 50.7357 4.88037L48.1488 9.95068C48.6249 9.9585 49.0809 10.1313 49.4491 10.4478C49.8715 10.811 50.1254 11.3159 50.1634 11.8696C50.2425 13.0112 49.3837 14.0044 48.2499 14.0845L45.9623 14.2524L38.4598 28.9731C38.3339 29.2114 38.3075 29.4985 38.3851 29.7661L43.9432 48.0796C44.057 48.437 43.994 48.8218 43.7684 49.1304C43.5433 49.438 43.1957 49.6147 42.8148 49.6147ZM41.9842 48.6147H42.8148C42.8944 48.6147 42.9408 48.5679 42.9613 48.5396C42.9818 48.5112 43.0126 48.4536 42.9882 48.3765L37.4261 30.0503C37.2758 29.5298 37.3295 28.9712 37.5726 28.5122L44.8744 14.186L43.9623 14.2524L36.4598 28.9731C36.3339 29.2114 36.3075 29.4985 36.3851 29.7661L41.9432 48.0796C41.9989 48.2554 42.0121 48.438 41.9842 48.6147ZM47.8832 10.9644C48.0443 11.2368 48.141 11.5454 48.1639 11.8696C48.1947 12.3228 48.0785 12.7524 47.8558 13.1108L48.1781 13.0864C48.7645 13.0454 49.2069 12.5308 49.1659 11.939C49.1464 11.6538 49.015 11.3931 48.7972 11.2056C48.5824 11.021 48.3168 10.9321 48.0248 10.9536L47.8832 10.9644ZM46.1488 9.95068C46.4227 9.95459 46.6903 10.0142 46.9379 10.1235L49.849 4.41748C49.85 4.4165 49.8509 4.41455 49.8519 4.4126L48.8583 4.39893C48.8592 4.56592 48.8177 4.73486 48.7308 4.88916L46.1488 9.95068Z" fill="#3B2F2F"/>
<path d="M11.9042 23.4448C11.7943 23.4448 11.684 23.4087 11.5912 23.3345C11.3763 23.1616 11.3422 22.8472 11.515 22.6313C11.6068 22.5171 11.7089 22.4136 11.8124 22.311C13.1049 21.0181 14.8285 20.3052 16.6649 20.3052H29.0946C30.9867 20.3052 32.8143 21.0991 34.1097 22.4829C34.2982 22.6851 34.288 23.0015 34.0863 23.1899C33.8851 23.3784 33.5692 23.3696 33.3793 23.1665C32.2728 21.9839 30.7108 21.3052 29.0946 21.3052H16.6649C15.0956 21.3052 13.6234 21.9136 12.5184 23.019C12.4403 23.0972 12.3627 23.1733 12.2943 23.2583C12.1957 23.3813 12.0507 23.4448 11.9042 23.4448Z" fill="#3B2F2F"/>
<path d="M33.6147 37.5054H10.0146C9.73828 37.5054 9.51465 37.2817 9.51465 37.0054C9.51465 36.729 9.73828 36.5054 10.0146 36.5054H33.6147C33.8911 36.5054 34.1147 36.729 34.1147 37.0054C34.1147 37.2817 33.8911 37.5054 33.6147 37.5054Z" fill="#3B2F2F"/>
<path d="M32.415 34.3755H11.2046C10.9282 34.3755 10.7046 34.1519 10.7046 33.8755C10.7046 33.5991 10.9282 33.3755 11.2046 33.3755H32.415C32.6914 33.3755 32.915 33.5991 32.915 33.8755C32.915 34.1519 32.6914 34.3755 32.415 34.3755Z" fill="#3B2F2F"/>
<path d="M41.0445 11.3149C40.9562 11.3149 40.8663 11.2915 40.7853 11.2427C40.5494 11.0991 40.4742 10.7915 40.6178 10.5552L44.6778 3.87549C44.8463 3.57373 45.1778 3.38525 45.5548 3.38525H47.8248C48.2013 3.38525 48.5323 3.57373 48.7106 3.88916C48.8985 4.18896 48.9103 4.56982 48.7311 4.88916L45.7501 10.7329C45.6241 10.978 45.3233 11.0757 45.0777 10.9507C44.8316 10.8257 44.734 10.5239 44.8595 10.2778L47.8497 4.41748L45.5548 4.38525L41.4723 11.0747C41.378 11.229 41.2135 11.3149 41.0445 11.3149Z" fill="#3B2F2F"/>
<path d="M40.8149 49.6148H38.7446C38.2451 49.6148 37.81 49.3101 37.6357 48.8384L30.9179 31.3745C30.7621 30.9673 30.3627 30.6948 29.9247 30.6948H13.6948C13.2499 30.6948 12.8559 30.9673 12.6899 31.3892L6.05218 48.8433C5.88129 49.3032 5.43158 49.6148 4.93451 49.6148H3.3349C2.94818 49.6148 2.59662 49.437 2.37005 49.1275C2.14545 48.8198 2.08295 48.4361 2.19818 48.0737L8.11664 28.7788C8.15716 28.6499 8.17035 28.5191 8.15716 28.3853L7.17621 16.4859C7.15375 16.2105 7.35834 15.9693 7.63373 15.9468C7.91205 15.9204 8.15033 16.1284 8.17328 16.4038L9.15326 28.2945C9.17914 28.5552 9.15179 28.8208 9.07171 29.0757L3.15277 48.3716C3.12738 48.4527 3.15716 48.5093 3.17718 48.5366C3.19867 48.5659 3.2475 48.6148 3.3349 48.6148H4.93451C5.01556 48.6148 5.08881 48.565 5.11615 48.4917L11.7573 31.0278C12.0766 30.2163 12.8364 29.6948 13.6948 29.6948H29.9247C30.7744 29.6948 31.5483 30.2261 31.8515 31.0161L38.5717 48.4859C38.602 48.5679 38.6674 48.6148 38.7446 48.6148H40.8149C40.8945 48.6148 40.9409 48.5679 40.9614 48.5396C40.9819 48.5112 41.0126 48.4536 40.9882 48.3765L35.4262 30.0503C35.2758 29.5298 35.3295 28.9712 35.5727 28.5122L43.1996 13.5484C43.3251 13.3013 43.624 13.2036 43.872 13.3296C44.1181 13.4546 44.2158 13.7564 44.0903 14.0025L36.4599 28.9722C36.3339 29.2114 36.3076 29.4986 36.3852 29.7661L41.9433 48.0796C42.0571 48.437 41.9941 48.8218 41.7685 49.1304C41.5434 49.438 41.1957 49.6148 40.8149 49.6148Z" fill="#3B2F2F"/>
<path d="M31.2247 26.0854H13.7247C12.7872 26.0854 11.9825 25.4497 11.7682 24.5395L9.838 16.3091C9.77501 16.0405 9.942 15.771 10.2106 15.7085C10.4781 15.6401 10.7486 15.811 10.8116 16.0805L12.7418 24.311C12.8492 24.7671 13.2535 25.0854 13.7247 25.0854H31.2247C31.5733 25.0854 31.8995 24.9018 32.0763 24.6079L38.6178 13.8452C38.7613 13.6098 39.0685 13.5346 39.3048 13.6772C39.5406 13.8208 39.6158 14.1284 39.4723 14.3647L32.9322 25.1245C32.5773 25.7163 31.9225 26.0854 31.2247 26.0854Z" fill="#3B2F2F"/>
<path d="M4.50045 20.3882C4.19625 20.3882 3.90133 20.3227 3.62399 20.1928C3.12301 19.9575 2.74459 19.5425 2.5566 19.0219C2.3691 18.5024 2.39498 17.9419 2.62936 17.4419L3.40035 15.7993C4.22457 14.0444 5.93746 12.8667 7.87155 12.7261L45.9506 9.95847C46.4907 9.9116 47.0239 10.0844 47.4419 10.4409C47.8662 10.8042 48.1225 11.312 48.1631 11.8725C48.2456 13.0083 47.3877 14.0005 46.2509 14.0844L8.17037 16.852C7.72653 16.8833 7.33346 17.1538 7.14401 17.5571L6.3735 19.1987C6.03512 19.9214 5.29977 20.3882 4.50045 20.3882ZM46.1181 10.9516C46.0883 10.9516 46.0586 10.9536 46.0288 10.9555L7.94381 13.7241C6.37008 13.8374 4.97604 14.7964 4.30563 16.2251L3.53463 17.8677C3.41354 18.1245 3.40035 18.4145 3.49703 18.6831C3.5942 18.9516 3.79 19.1655 4.04782 19.2876C4.56979 19.5298 5.2275 19.2886 5.46823 18.7739L6.23873 17.1313C6.58199 16.4018 7.2944 15.9126 8.0986 15.854L46.1782 13.0864C46.7651 13.0434 47.2085 12.5317 47.166 11.9448C47.1445 11.6538 47.0117 11.3891 46.792 11.2016C46.602 11.0386 46.3652 10.9516 46.1181 10.9516Z" fill="#3B2F2F"/>
</svg>
