<svg width="53" height="53" viewBox="0 0 53 53" fill="none" xmlns="http://www.w3.org/2000/svg">
<path d="M42.3669 6.25888L40.7369 6.49887L40.6069 5.57889C40.377 4.05887 39.2469 2.90891 37.8369 2.5889L38.187 2.53891C40.1569 2.24887 41.9769 3.60892 42.2669 5.57889L42.3669 6.25888Z" fill="#3B2F2F"/>
<path d="M40.7376 6.99843C40.6302 6.99843 40.5257 6.96425 40.4378 6.89882C40.3314 6.81971 40.2611 6.70057 40.2425 6.56874L40.1117 5.64882C39.9193 4.37245 38.9828 3.36171 37.7269 3.07655C37.4915 3.02382 37.3285 2.80995 37.3373 2.56971C37.347 2.3285 37.5267 2.12928 37.765 2.09413L38.1146 2.04335C40.3529 1.72011 42.432 3.26796 42.7621 5.50526L42.8626 6.18593C42.8812 6.31776 42.848 6.45057 42.7689 6.55702C42.6898 6.66346 42.5716 6.73475 42.4398 6.75428L40.8099 6.99354C40.7865 6.99647 40.7621 6.99843 40.7376 6.99843ZM40.0492 3.30702C40.599 3.89979 40.973 4.65761 41.1009 5.50429L41.1615 5.93104L41.8001 5.83729L41.7718 5.65175C41.6165 4.59511 40.9437 3.73964 40.0492 3.30702Z" fill="#3B2F2F"/>
<path d="M42.8674 9.63892C43.1573 11.6089 41.8074 13.4389 39.8373 13.7289L39.1374 13.8289V13.8389L36.2773 14.2589V14.0189L37.4673 13.8389C37.4673 13.8289 37.4673 13.8289 37.4673 13.8289L38.1674 13.7289C40.1374 13.4389 41.4974 11.609 41.1974 9.63892L41.0674 8.71894L44.1374 8.26892C44.3674 8.23895 44.5873 8.29895 44.7673 8.41895L42.7274 8.71894L42.8674 9.63892Z" fill="#3B2F2F"/>
<path d="M36.2769 14.7592C36.1577 14.7592 36.0415 14.7162 35.9497 14.6371C35.8403 14.5424 35.7769 14.4047 35.7769 14.2592V14.019C35.7769 13.7719 35.9575 13.5619 36.2026 13.5248L37.2954 13.3598C37.3276 13.3471 37.3618 13.3383 37.397 13.3334L38.0972 13.2338C38.9175 13.1127 39.6411 12.6791 40.1343 12.0121C40.6255 11.3481 40.8276 10.5316 40.7036 9.71427L40.5718 8.78946C40.5327 8.517 40.7222 8.26407 40.9946 8.22403L44.0649 7.77384C44.4136 7.73087 44.7563 7.80997 45.0454 8.00333C45.2173 8.11856 45.3003 8.32755 45.2544 8.5297C45.2095 8.73087 45.0444 8.88419 44.8394 8.91446L43.2974 9.14102L43.3618 9.56388C43.3618 9.56485 43.3618 9.56485 43.3628 9.56583C43.522 10.6518 43.2524 11.7328 42.6021 12.6117C41.9507 13.4916 40.9946 14.0639 39.9106 14.224L39.3052 14.31C39.2749 14.3207 39.2427 14.3295 39.2095 14.3344L36.3491 14.7543C36.3257 14.7572 36.3013 14.7592 36.2769 14.7592ZM41.6323 9.142L41.6929 9.56876C41.8569 10.6469 41.5894 11.727 40.939 12.6068C40.8432 12.7358 40.7417 12.8578 40.6343 12.9731C41.0903 12.7592 41.4897 12.433 41.7983 12.016C42.2896 11.3529 42.4937 10.5356 42.3735 9.71427L42.272 9.04825L41.6323 9.142Z" fill="#3B2F2F"/>
<path d="M47.557 17.9289L34.2069 21.3089C33.7669 21.419 33.497 21.8289 33.557 22.2789L33.6469 22.8989C33.947 22.979 34.237 23.1189 34.487 23.3089C35.0269 23.7189 35.427 24.3389 35.537 25.0689L36.787 33.5589C36.997 35.0089 35.997 36.3789 34.537 36.599C34.107 36.659 33.697 36.6189 33.317 36.489C34.5269 36.0889 35.317 34.859 35.117 33.5589L33.867 25.0689C33.757 24.3389 33.357 23.7189 32.817 23.3089C32.567 23.1189 32.287 22.979 31.987 22.8989L31.8969 22.2789C31.8269 21.8289 32.107 21.419 32.537 21.3089L45.887 17.9289C47.437 17.5289 48.427 16.039 48.197 14.4689L47.3369 8.66896C47.1469 7.38893 46.2069 6.40895 45.0269 6.11891L45.477 6.04896C47.177 5.79896 48.757 6.96895 49.007 8.66896L49.857 14.4689C50.097 16.039 49.107 17.5289 47.557 17.9289Z" fill="#3B2F2F"/>
<path d="M34.1508 37.1254C33.808 37.1254 33.475 37.0707 33.1556 36.9623C32.9525 36.893 32.8158 36.7006 32.8168 36.4857C32.8178 36.2709 32.9564 36.0814 33.1605 36.0141C34.1517 35.6869 34.7806 34.6635 34.6234 33.6352L33.3724 25.142C33.2865 24.5727 32.9818 24.0619 32.514 23.7074C32.3129 23.5531 32.0922 23.4447 31.8588 23.3822C31.6654 23.3305 31.5219 23.1693 31.4926 22.9711L31.4017 22.351C31.2953 21.6576 31.7299 20.9994 32.4135 20.8246L45.764 17.4447C47.0619 17.1098 47.8959 15.8607 47.7025 14.5414L46.8431 8.74258C46.6869 7.69375 45.9271 6.85488 44.9076 6.60391C44.6762 6.54727 44.517 6.33438 44.5267 6.0961C44.5375 5.85879 44.7152 5.66055 44.9506 5.62442L45.4008 5.55508C46.3539 5.41543 47.3099 5.65176 48.0834 6.22598C48.8578 6.8002 49.3617 7.64199 49.5023 8.59707L50.3519 14.3969C50.6303 16.2201 49.4828 17.9477 47.682 18.4135C47.681 18.4135 47.6801 18.4135 47.6801 18.4135L34.3305 21.7934C34.1371 21.8422 34.0258 22.0102 34.0531 22.2133L34.0971 22.5219C34.3461 22.6205 34.5814 22.7523 34.7904 22.9115C35.4652 23.4242 35.9066 24.1645 36.0316 24.9936L37.2826 33.4857C37.5326 35.2162 36.3344 36.8344 34.6117 37.0932C34.4564 37.1146 34.3021 37.1254 34.1508 37.1254ZM33.6576 23.4252C34.0297 23.8715 34.2738 24.4105 34.3617 24.9936L35.6127 33.4857C35.7543 34.4105 35.4808 35.3109 34.9164 35.9857C35.8441 35.6313 36.4418 34.6596 36.2924 33.6303L35.0424 25.142C34.9564 24.5727 34.6517 24.0619 34.1849 23.7064C34.0277 23.5873 33.848 23.4916 33.6576 23.4252ZM32.4379 22.5229C32.6791 22.6195 32.9066 22.7494 33.1195 22.9115C33.1283 22.9184 33.1371 22.9252 33.1469 22.932L33.0619 22.35C33.0306 22.1117 33.058 21.8813 33.1332 21.6742L32.6605 21.7934C32.476 21.8412 32.3617 22.0131 32.391 22.2025L32.4379 22.5229ZM46.9623 6.72598C47.4174 7.2377 47.726 7.88223 47.8314 8.59609L48.6918 14.3959C48.8519 15.4867 48.5053 16.5414 47.8187 17.3129C48.8939 16.851 49.5433 15.726 49.3627 14.5443L48.5121 8.7416C48.4115 8.05215 48.0472 7.44473 47.4877 7.02969C47.3226 6.90664 47.1469 6.80606 46.9623 6.72598Z" fill="#3B2F2F"/>
<path d="M15.7378 50.9994C8.37451 50.9994 2.60693 48.5307 2.60693 45.3793V27.1987C2.60693 26.9223 2.83057 26.6987 3.10693 26.6987C3.3833 26.6987 3.61182 26.9223 3.61182 27.1987C3.61182 27.2241 3.61084 27.2485 3.60693 27.2729V45.3793C3.60693 47.6108 8.48096 49.9994 15.7378 49.9994C22.9868 49.9994 27.8569 47.6108 27.8569 45.3793V27.3286C27.8569 27.0522 28.0806 26.8286 28.3569 26.8286C28.6333 26.8286 28.8569 27.0522 28.8569 27.3286V45.3793C28.8569 48.5307 23.0942 50.9994 15.7378 50.9994Z" fill="#3B2F2F"/>
<path d="M15.7378 32.809C8.38037 32.809 2.61768 30.3442 2.61768 27.1987C2.61768 24.9252 5.59033 22.9516 10.3745 22.0473C10.6431 21.9985 10.9077 22.1733 10.9585 22.4457C11.0103 22.7172 10.8315 22.9789 10.5601 23.0297C6.40772 23.8149 3.61768 25.4897 3.61768 27.1987C3.61768 29.4252 8.48779 31.809 15.7378 31.809C22.9937 31.809 27.8677 29.4252 27.8677 27.1987C27.8677 26.309 27.0962 25.3959 25.6968 24.6274C25.4546 24.4946 25.3657 24.1908 25.4985 23.9487C25.6313 23.7055 25.938 23.6176 26.1772 23.7504C27.937 24.7162 28.8677 25.9086 28.8677 27.1987C28.8677 30.3442 23.1001 32.809 15.7378 32.809Z" fill="#3B2F2F"/>
<path d="M15.7378 30.9193C10.7935 30.9193 5.5376 29.6156 5.5376 27.1986C5.5376 25.8393 7.1958 24.7182 10.2075 24.0404C10.4741 23.9838 10.7446 24.1508 10.8052 24.4193C10.8657 24.6889 10.6958 24.9555 10.4263 25.017C7.73975 25.6205 6.5376 26.5483 6.5376 27.1986C6.5376 28.3344 10.0376 29.9193 15.7378 29.9193C21.437 29.9193 24.937 28.3344 24.937 27.1986C24.937 26.892 24.6929 26.5658 24.2104 26.2279C23.9849 26.0697 23.9292 25.7582 24.0884 25.5317C24.2456 25.3051 24.5581 25.2514 24.7847 25.4096C25.5493 25.9447 25.937 26.5473 25.937 27.1986C25.937 29.6156 20.6821 30.9193 15.7378 30.9193Z" fill="#3B2F2F"/>
<path d="M19.5913 36.9047C18.5962 36.9047 17.6753 36.7406 16.8354 36.4145C16.4751 36.2738 16.1235 36.101 15.7729 35.9281C15.1567 35.6234 14.5737 35.3363 13.9526 35.2426C13.0991 35.1244 12.1909 35.392 11.2329 35.6801C9.94482 36.0658 8.61279 36.4623 7.31982 35.8744C6.98291 35.7211 6.69775 35.5199 6.42041 35.3246C6.2124 35.1772 6.00635 35.0297 5.78076 34.9145C4.92236 34.4818 4.21533 34.5951 3.27881 34.9389C3.12744 34.9955 2.95557 34.974 2.8208 34.8793C2.68701 34.7856 2.60693 34.6322 2.60693 34.4692V28.2992C2.60693 28.1283 2.69482 27.9692 2.83936 27.8774C2.93408 27.8168 3.02881 27.7592 3.12354 27.7113C3.37158 27.5873 3.67041 27.6879 3.79443 27.935C3.91162 28.1693 3.82764 28.4526 3.60693 28.5863V33.7817C4.36768 33.5766 5.23486 33.519 6.23291 34.0229C6.50244 34.1596 6.75049 34.3324 6.99756 34.5072C7.24756 34.684 7.48291 34.85 7.73389 34.9643C8.68896 35.3988 9.78564 35.0697 10.9458 34.7221C11.9644 34.4154 13.022 34.102 14.0972 34.2533C14.8765 34.3705 15.5581 34.7065 16.2163 35.0317C16.5405 35.1918 16.8647 35.3529 17.1987 35.4828C18.6489 36.0473 20.4097 36.0443 22.4321 35.4779L22.8452 35.3568C23.5054 35.1615 24.187 34.9584 24.9204 34.9486C25.3188 34.9486 25.6968 34.9994 26.062 35.0483C26.2642 35.0756 26.4673 35.1029 26.6714 35.1205C27.0913 35.1567 27.4888 35.1449 27.8569 35.0854V29.5072C27.7974 29.4828 27.7388 29.4594 27.6802 29.435C27.6763 29.434 27.5669 29.3852 27.563 29.3832C27.5103 29.3608 27.4595 29.3373 27.4136 29.31C27.1763 29.1703 27.0962 28.8637 27.2368 28.6254C27.3765 28.3871 27.6831 28.31 27.9214 28.4486L27.9155 28.4565L27.7632 28.9252L28.061 28.5121C28.2075 28.5707 28.3569 28.6322 28.5142 28.684C28.7192 28.7514 28.8569 28.9428 28.8569 29.1586V35.4887C28.8569 35.7152 28.7056 35.9125 28.4868 35.9711C27.9058 36.1274 27.2661 36.1762 26.5835 36.1166C26.3647 36.0971 26.147 36.0688 25.9292 36.0395C25.5815 35.9926 25.2524 35.9486 24.9272 35.9486C24.3394 35.9565 23.7515 36.1313 23.1304 36.3158L22.7026 36.4408C21.5991 36.7494 20.5601 36.9047 19.5913 36.9047Z" fill="#3B2F2F"/>
<path d="M31.9872 23.3988C31.743 23.3988 31.5302 23.2201 31.493 22.9711L31.4022 22.351C31.2958 21.6576 31.7304 20.9994 32.4139 20.8246L45.7645 17.4447C47.0624 17.1098 47.8964 15.8608 47.703 14.5414L46.8436 8.74259C46.6346 7.32071 45.3134 6.3295 43.8798 6.54435L40.8104 6.99454C40.5409 7.02384 40.2831 6.84513 40.243 6.57169C40.203 6.29923 40.3925 6.04435 40.6659 6.00431L43.7352 5.55411C45.6952 5.27482 47.5438 6.62931 47.8329 8.59708L48.6923 14.3959C48.9598 16.2231 47.8075 17.9496 46.0126 18.4135L32.661 21.7934C32.4764 21.8412 32.3622 22.0131 32.3915 22.2026L32.4833 22.8266C32.5233 23.1 32.3339 23.3539 32.0604 23.394C32.036 23.3969 32.0116 23.3988 31.9872 23.3988Z" fill="#3B2F2F"/>
<path d="M29.7567 23.7192C29.5126 23.7192 29.2987 23.5395 29.2626 23.2905L29.1727 22.6703C28.9052 20.8334 30.0585 19.1059 31.8554 18.6537L45.1942 15.2748C45.3837 15.2231 45.5077 15.0512 45.4823 14.8686L44.6239 9.07269C44.6093 8.97699 44.5575 8.89105 44.4784 8.83245C44.4003 8.77386 44.3046 8.7514 44.2118 8.76312L41.1395 9.21429C40.8681 9.24163 40.6122 9.06488 40.5722 8.79144C40.5321 8.518 40.7216 8.26409 40.995 8.22406L44.0653 7.77386C44.4218 7.72015 44.7811 7.81097 45.077 8.0307C45.369 8.24847 45.5585 8.56683 45.6122 8.92523L46.4716 14.726C46.5683 15.4067 46.1278 16.0561 45.4491 16.2416L32.1005 19.6235C30.8017 19.9506 29.9686 21.1987 30.163 22.5268L30.2528 23.1479C30.2919 23.4203 30.1024 23.6743 29.829 23.7143C29.8056 23.7172 29.7811 23.7192 29.7567 23.7192Z" fill="#3B2F2F"/>
<path d="M27.7565 15.769C27.5133 15.769 27.2995 15.5903 27.2624 15.3422C27.2223 15.0688 27.4118 14.8149 27.6842 14.7738L37.2975 13.3588C37.3288 13.3471 37.362 13.3383 37.3971 13.3334L38.0973 13.2338C38.9176 13.1127 39.6413 12.6791 40.1344 12.0121C40.6256 11.3481 40.8278 10.5317 40.7038 9.71427L40.112 5.6508C39.8561 3.96134 38.2799 2.78459 36.5895 3.03361L16.2106 6.04435C14.9128 6.23478 13.8473 7.26799 13.6198 8.55607C13.567 8.89201 13.5602 9.22502 13.6032 9.56779L13.7624 10.6674C13.8014 10.9408 13.612 11.1938 13.3385 11.2338C13.067 11.2611 12.8112 11.0834 12.7721 10.81L12.612 9.7006C12.5563 9.25431 12.5641 8.82853 12.6335 8.39006C12.942 6.64884 14.32 5.31095 16.0641 5.05412L36.444 2.04435C38.6754 1.71623 40.7614 3.26994 41.1012 5.50334L41.693 9.56681C41.8571 10.6469 41.5895 11.727 40.9391 12.6069C40.2868 13.4897 39.3278 14.0639 38.2409 14.224L37.6354 14.31C37.6051 14.3207 37.5729 14.3295 37.5407 14.3344L27.8307 15.7641C27.8053 15.767 27.7809 15.769 27.7565 15.769Z" fill="#3B2F2F"/>
<path d="M32.4762 37.1234C31.7994 37.1234 31.1432 36.9057 30.5885 36.4926C29.9098 35.9848 29.4674 35.2435 29.3434 34.4066L28.0846 25.9262C27.9606 25.0834 28.1705 24.2455 28.6764 23.5648C29.1813 22.8851 29.9235 22.4418 30.7662 22.3178C31.5875 22.1976 32.4244 22.4047 33.1139 22.9066C33.7994 23.4252 34.2408 24.1664 34.3639 24.9994L35.6149 33.4818C35.8698 35.2162 34.6715 36.8344 32.943 37.0892C32.7867 37.1117 32.6315 37.1234 32.4762 37.1234ZM31.236 23.2836C31.1285 23.2836 31.0211 23.2914 30.9117 23.307C30.3336 23.393 29.8248 23.6957 29.4781 24.1615C29.1324 24.6273 28.9889 25.2025 29.0739 25.7807L30.3326 34.2601C30.4176 34.8353 30.7213 35.3432 31.1871 35.6908C31.653 36.0385 32.2272 36.1889 32.7965 36.099C33.9801 35.9252 34.8004 34.8168 34.6246 33.6283L33.3746 25.1459C33.2906 24.5736 32.986 24.0639 32.5182 23.7094C32.1324 23.4291 31.693 23.2836 31.236 23.2836Z" fill="#3B2F2F"/>
<path d="M13.4009 28.2494C12.4537 28.2494 11.4664 27.8363 10.8043 27.0668C9.91852 26.0375 9.5904 24.4887 9.9234 22.9154C9.94196 22.1381 10.3531 21.4545 10.7173 20.849C10.9048 20.5365 11.0826 20.2406 11.192 19.9623C11.4048 19.4203 11.1627 18.9545 10.7496 18.2377C10.6363 18.0414 10.5211 17.8403 10.4166 17.6342C10.1402 17.0815 9.79547 16.394 9.85797 15.6244C9.90485 15.0483 10.1705 14.557 10.4058 14.1235C11.1021 12.8442 11.8218 11.5229 12.8658 10.4291C13.5162 9.74748 14.5435 8.97209 15.7222 9.18888C16.314 9.29338 16.8365 9.63517 17.2965 9.93595C17.94 10.3569 18.356 10.601 18.7642 10.4496C18.8668 10.4096 18.98 10.3363 19.1002 10.2572C19.3091 10.1205 19.5464 9.96525 19.8531 9.90373C20.3404 9.80412 20.7838 9.98771 21.1089 10.1225C22.9283 10.8725 24.9898 11.7221 26.6402 13.186C28.5015 14.8373 29.4468 17.0395 29.1705 19.0766C28.9742 20.5336 28.2007 21.7817 27.356 23.0375C26.5464 24.2416 25.73 25.4028 24.6509 26.3656C23.7769 27.1449 22.3677 28.0942 20.6148 28.185C19.0377 28.2885 17.5435 27.5551 16.7506 26.3959C16.4644 26.433 16.1715 26.7026 15.7623 27.1078C15.5416 27.3266 15.3131 27.5531 15.0572 27.7387C14.5826 28.0844 13.9996 28.2494 13.4009 28.2494ZM15.3336 10.1547C14.6236 10.1547 13.9468 10.7445 13.5884 11.1205C12.6363 12.1176 11.9488 13.3803 11.2847 14.601C11.0884 14.9633 10.8843 15.3393 10.8541 15.7065C10.817 16.1606 11.0298 16.6254 11.3111 17.185C11.4058 17.3744 11.5113 17.558 11.6158 17.7387C12.0406 18.475 12.522 19.311 12.1236 20.3276C11.983 20.685 11.775 21.0307 11.5738 21.3647C11.2388 21.9223 10.9224 22.4487 10.9224 22.9721C10.9224 23.0082 10.9185 23.0444 10.9107 23.0795C10.6275 24.3647 10.8707 25.6108 11.5621 26.4145C12.3043 27.2758 13.6607 27.519 14.4693 26.9301C14.6744 26.7807 14.8668 26.5873 15.0591 26.3969C15.5855 25.8754 16.2369 25.2289 17.148 25.4272C17.2847 25.4584 17.4029 25.5453 17.4722 25.6664C18.0338 26.644 19.2769 27.2416 20.5621 27.1869C21.7037 27.1274 22.9195 26.5707 23.9849 25.6195C24.9781 24.7338 25.7535 23.6293 26.5259 22.4789C27.3023 21.3256 28.0123 20.186 28.1802 18.9428C28.4078 17.2612 27.564 15.3422 25.9761 13.934C24.4517 12.5824 22.4732 11.767 20.7281 11.0463C20.5103 10.9565 20.2408 10.8422 20.0513 10.8842C19.9322 10.9076 19.8004 10.9945 19.648 11.0942C19.4957 11.1938 19.3238 11.3061 19.1197 11.3842C18.2105 11.7279 17.4351 11.2211 16.7496 10.7729C16.3326 10.5004 15.9381 10.2426 15.5484 10.1733C15.4761 10.1606 15.4048 10.1547 15.3336 10.1547Z" fill="#3B2F2F"/>
</svg>
