<svg width="53" height="53" viewBox="0 0 53 53" fill="none" xmlns="http://www.w3.org/2000/svg">
<path d="M50.3604 12.3975V47.7075C50.3604 49.3174 49.0503 50.6274 47.4502 50.6274H44.4502C46.0503 50.6274 47.3604 49.3174 47.3604 47.7075V12.3975C47.3604 10.7875 46.0503 9.47748 44.4502 9.47748H47.4502C49.0503 9.47748 50.3604 10.7875 50.3604 12.3975Z" fill="#3B2F2F"/>
<path d="M47.4497 51.127H44.4497C44.1733 51.127 43.9497 50.9033 43.9497 50.627C43.9497 50.3506 44.1733 50.127 44.4497 50.127C45.7788 50.127 46.8599 49.041 46.8599 47.707V12.3975C46.8599 11.0635 45.7788 9.97754 44.4497 9.97754C44.1733 9.97754 43.9497 9.75391 43.9497 9.47754C43.9497 9.20117 44.1733 8.97754 44.4497 8.97754H47.4497C49.3296 8.97754 50.8599 10.5117 50.8599 12.3975V47.707C50.8599 49.5928 49.3296 51.127 47.4497 51.127ZM46.8569 50.127H47.4497C48.7788 50.127 49.8599 49.041 49.8599 47.707V12.3975C49.8599 11.0635 48.7788 9.97754 47.4497 9.97754H46.8569C47.4761 10.5967 47.8599 11.4531 47.8599 12.3975V47.707C47.8599 48.6514 47.4761 49.5078 46.8569 50.127Z" fill="#3B2F2F"/>
<path d="M12.2798 10.4775C12.0074 10.4775 11.7837 10.2588 11.7798 9.98535C11.7759 9.70898 11.9957 9.48145 12.272 9.47754L27.3228 9.24707C27.6177 9.27734 27.8267 9.46289 27.8306 9.73926C27.8345 10.0156 27.6148 10.2432 27.3384 10.2471L12.2876 10.4775C12.2847 10.4775 12.2828 10.4775 12.2798 10.4775Z" fill="#3B2F2F"/>
<path d="M44.4497 51.1279H7.46045C4.52686 51.1279 2.14014 48.7412 2.14014 45.8076L2.28369 44.6348C2.31885 44.3604 2.57275 44.1621 2.84229 44.2012C3.11572 44.2354 3.31006 44.4854 3.27588 44.7598L3.13623 45.8701C3.14014 48.1895 5.07861 50.1279 7.46045 50.1279H44.4497C45.7788 50.1279 46.8599 49.042 46.8599 47.707V12.3975C46.8599 11.0635 45.7788 9.97754 44.4497 9.97754L32.8276 10.1572C32.5747 10.1953 32.3237 9.94141 32.3198 9.66504C32.3159 9.38867 32.5356 9.16113 32.812 9.15723L44.4419 8.97754C46.3306 8.97754 47.8599 10.5117 47.8599 12.3975V47.707C47.8599 49.5937 46.3306 51.1279 44.4497 51.1279Z" fill="#3B2F2F"/>
<path d="M12.2798 46.3076C12.0034 46.3076 11.7798 46.084 11.7798 45.8076C11.7798 43.4258 9.84229 41.4873 7.46045 41.4873C5.07861 41.4873 3.14014 43.4258 3.14014 45.8076C3.14014 46.084 2.9165 46.3076 2.64014 46.3076C2.36377 46.3076 2.14014 46.084 2.14014 45.8076V7.44727C2.14014 4.51367 4.52686 2.12695 7.46045 2.12695C10.3931 2.12695 12.7798 4.51367 12.7798 7.44727V45.8076C12.7798 46.084 12.5562 46.3076 12.2798 46.3076ZM7.46045 3.12695C5.07861 3.12695 3.14014 5.06543 3.14014 7.44727V42.7061C4.10693 41.3633 5.68311 40.4873 7.46045 40.4873C9.23682 40.4873 10.813 41.3633 11.7798 42.7061V7.44727C11.7798 5.06543 9.84229 3.12695 7.46045 3.12695Z" fill="#3B2F2F"/>
<path d="M41.5298 30.1025C41.2534 30.1025 41.0298 29.8789 41.0298 29.6025V28.1025C41.0298 27.8262 41.2534 27.6025 41.5298 27.6025C41.8062 27.6025 42.0298 27.8262 42.0298 28.1025V29.6025C42.0298 29.8789 41.8062 30.1025 41.5298 30.1025Z" fill="#3B2F2F"/>
<path d="M41.5298 40.502C41.2534 40.502 41.0298 40.2783 41.0298 40.002V37.4023C41.0298 37.126 41.2534 36.9023 41.5298 36.9023C41.8062 36.9023 42.0298 37.126 42.0298 37.4023V40.002C42.0298 40.2783 41.8062 40.502 41.5298 40.502ZM41.5298 35.3018C41.2534 35.3018 41.0298 35.0781 41.0298 34.8018V32.2021C41.0298 31.9258 41.2534 31.7021 41.5298 31.7021C41.8062 31.7021 42.0298 31.9258 42.0298 32.2021V34.8018C42.0298 35.0781 41.8062 35.3018 41.5298 35.3018Z" fill="#3B2F2F"/>
<path d="M41.5298 44.6025H40.0298C39.7534 44.6025 39.5298 44.3789 39.5298 44.1025C39.5298 43.8262 39.7534 43.6025 40.0298 43.6025H41.0298V42.6025C41.0298 42.3262 41.2534 42.1025 41.5298 42.1025C41.8062 42.1025 42.0298 42.3262 42.0298 42.6025V44.1025C42.0298 44.3789 41.8062 44.6025 41.5298 44.6025Z" fill="#3B2F2F"/>
<path d="M37.1733 44.6025H34.3159C34.0396 44.6025 33.8159 44.3789 33.8159 44.1025C33.8159 43.8262 34.0396 43.6025 34.3159 43.6025H37.1733C37.4497 43.6025 37.6733 43.8262 37.6733 44.1025C37.6733 44.3789 37.4497 44.6025 37.1733 44.6025ZM31.4595 44.6025H28.6021C28.3257 44.6025 28.1021 44.3789 28.1021 44.1025C28.1021 43.8262 28.3257 43.6025 28.6021 43.6025H31.4595C31.7358 43.6025 31.9595 43.8262 31.9595 44.1025C31.9595 44.3789 31.7358 44.6025 31.4595 44.6025ZM25.7446 44.6025H22.8872C22.6108 44.6025 22.3872 44.3789 22.3872 44.1025C22.3872 43.8262 22.6108 43.6025 22.8872 43.6025H25.7446C26.021 43.6025 26.2446 43.8262 26.2446 44.1025C26.2446 44.3789 26.021 44.6025 25.7446 44.6025Z" fill="#3B2F2F"/>
<path d="M20.0298 44.6025H18.5298C18.2534 44.6025 18.0298 44.3789 18.0298 44.1025V42.6025C18.0298 42.3262 18.2534 42.1025 18.5298 42.1025C18.8062 42.1025 19.0298 42.3262 19.0298 42.6025V43.6025H20.0298C20.3062 43.6025 20.5298 43.8262 20.5298 44.1025C20.5298 44.3789 20.3062 44.6025 20.0298 44.6025Z" fill="#3B2F2F"/>
<path d="M18.5298 40.502C18.2534 40.502 18.0298 40.2783 18.0298 40.002V37.4023C18.0298 37.126 18.2534 36.9023 18.5298 36.9023C18.8062 36.9023 19.0298 37.126 19.0298 37.4023V40.002C19.0298 40.2783 18.8062 40.502 18.5298 40.502ZM18.5298 35.3018C18.2534 35.3018 18.0298 35.0781 18.0298 34.8018V32.2021C18.0298 31.9258 18.2534 31.7021 18.5298 31.7021C18.8062 31.7021 19.0298 31.9258 19.0298 32.2021V34.8018C19.0298 35.0781 18.8062 35.3018 18.5298 35.3018Z" fill="#3B2F2F"/>
<path d="M18.5298 30.1025C18.2534 30.1025 18.0298 29.8789 18.0298 29.6025V28.1025C18.0298 27.8262 18.2534 27.6025 18.5298 27.6025C18.8062 27.6025 19.0298 27.8262 19.0298 28.1025V29.6025C19.0298 29.8789 18.8062 30.1025 18.5298 30.1025Z" fill="#3B2F2F"/>
<path d="M28.19 19.3174C28.0328 19.3174 27.8775 19.2432 27.7808 19.1045C27.6216 18.8779 27.6773 18.5664 27.9029 18.4082L29.7427 17.1182C29.9146 16.9971 30.1451 16.9971 30.317 17.1182L31.5445 17.9805C31.7711 18.1396 31.8248 18.4512 31.6666 18.6768C31.5074 18.9033 31.1939 18.957 30.9703 18.7988L30.0298 18.1387L28.4771 19.2266C28.3902 19.2881 28.2896 19.3174 28.19 19.3174Z" fill="#3B2F2F"/>
<path d="M40.6302 25.4707C40.5306 25.4707 40.43 25.4414 40.3431 25.3799L37.9994 23.7344C37.7728 23.5762 37.7181 23.2637 37.8773 23.0381C38.0365 22.8115 38.3499 22.7569 38.5736 22.916L40.9173 24.5615C41.1439 24.7198 41.1986 25.0323 41.0394 25.2578C40.9417 25.3965 40.7874 25.4707 40.6302 25.4707ZM35.9437 22.1807C35.8441 22.1807 35.7435 22.1514 35.6566 22.0899L33.3138 20.4444C33.0872 20.2852 33.0326 19.9737 33.1917 19.7481C33.3509 19.5215 33.6634 19.4668 33.888 19.626L36.2308 21.2715C36.4574 21.4307 36.512 21.7422 36.3529 21.9678C36.2552 22.1065 36.1009 22.1807 35.9437 22.1807Z" fill="#3B2F2F"/>
<path d="M44.1995 27.9776C44.0999 27.9776 43.9994 27.9483 43.9124 27.8867L42.6849 27.0244C42.4583 26.8653 42.4036 26.5537 42.5628 26.3282C42.722 26.1016 43.0345 26.0479 43.2591 26.2061L44.4867 27.0684C44.7132 27.2276 44.7669 27.5391 44.6087 27.7647C44.5111 27.9033 44.3568 27.9776 44.1995 27.9776Z" fill="#3B2F2F"/>
<path d="M20.5423 24.6895C20.3851 24.6895 20.2308 24.6153 20.1331 24.4766C19.974 24.251 20.0286 23.9395 20.2552 23.7803L21.4828 22.918C21.7074 22.7598 22.0199 22.8135 22.179 23.0401C22.3372 23.2657 22.2835 23.5772 22.057 23.7364L20.8294 24.5987C20.7425 24.6602 20.6419 24.6895 20.5423 24.6895Z" fill="#3B2F2F"/>
<path d="M15.8598 27.9776C15.7025 27.9776 15.5482 27.9033 15.4506 27.7647C15.2924 27.5391 15.3461 27.2276 15.5727 27.0684L16.8002 26.2061C17.0248 26.0479 17.3363 26.1016 17.4965 26.3282C17.6557 26.5537 17.601 26.8653 17.3744 27.0244L16.1469 27.8867C16.06 27.9483 15.9594 27.9776 15.8598 27.9776Z" fill="#3B2F2F"/>
<path d="M34.5903 44.6025H33.0903C32.814 44.6025 32.5903 44.3789 32.5903 44.1025C32.5903 43.8262 32.814 43.6025 33.0903 43.6025H34.0903V42.6025C34.0903 42.3262 34.314 42.1025 34.5903 42.1025C34.8667 42.1025 35.0903 42.3262 35.0903 42.6025V44.1025C35.0903 44.3789 34.8667 44.6025 34.5903 44.6025Z" fill="#3B2F2F"/>
<path d="M31.0503 44.6025H29.0103C28.7339 44.6025 28.5103 44.3789 28.5103 44.1025C28.5103 43.8262 28.7339 43.6025 29.0103 43.6025H31.0503C31.3267 43.6025 31.5503 43.8262 31.5503 44.1025C31.5503 44.3789 31.3267 44.6025 31.0503 44.6025Z" fill="#3B2F2F"/>
<path d="M26.9702 44.6025H25.4702C25.1938 44.6025 24.9702 44.3789 24.9702 44.1025V42.6025C24.9702 42.3262 25.1938 42.1025 25.4702 42.1025C25.7466 42.1025 25.9702 42.3262 25.9702 42.6025V43.6025H26.9702C27.2466 43.6025 27.4702 43.8262 27.4702 44.1025C27.4702 44.3789 27.2466 44.6025 26.9702 44.6025Z" fill="#3B2F2F"/>
<path d="M25.4702 40.585C25.1938 40.585 24.9702 40.3613 24.9702 40.085V37.5674C24.9702 37.291 25.1938 37.0674 25.4702 37.0674C25.7466 37.0674 25.9702 37.291 25.9702 37.5674V40.085C25.9702 40.3613 25.7466 40.585 25.4702 40.585Z" fill="#3B2F2F"/>
<path d="M25.4702 35.5508C25.1938 35.5508 24.9702 35.3271 24.9702 35.0508V33.5508C24.9702 33.2744 25.1938 33.0508 25.4702 33.0508H26.9702C27.2466 33.0508 27.4702 33.2744 27.4702 33.5508C27.4702 33.8271 27.2466 34.0508 26.9702 34.0508H25.9702V35.0508C25.9702 35.3271 25.7466 35.5508 25.4702 35.5508Z" fill="#3B2F2F"/>
<path d="M31.0503 34.0508H29.0103C28.7339 34.0508 28.5103 33.8271 28.5103 33.5508C28.5103 33.2744 28.7339 33.0508 29.0103 33.0508H31.0503C31.3267 33.0508 31.5503 33.2744 31.5503 33.5508C31.5503 33.8271 31.3267 34.0508 31.0503 34.0508Z" fill="#3B2F2F"/>
<path d="M34.5903 35.5508C34.314 35.5508 34.0903 35.3271 34.0903 35.0508V34.0508H33.0903C32.814 34.0508 32.5903 33.8271 32.5903 33.5508C32.5903 33.2744 32.814 33.0508 33.0903 33.0508H34.5903C34.8667 33.0508 35.0903 33.2744 35.0903 33.5508V35.0508C35.0903 35.3271 34.8667 35.5508 34.5903 35.5508Z" fill="#3B2F2F"/>
<path d="M34.5903 40.5859C34.314 40.5859 34.0903 40.3623 34.0903 40.0859V37.5684C34.0903 37.292 34.314 37.0684 34.5903 37.0684C34.8667 37.0684 35.0903 37.292 35.0903 37.5684V40.0859C35.0903 40.3623 34.8667 40.5859 34.5903 40.5859Z" fill="#3B2F2F"/>
<path d="M28.6226 29.1045C28.5376 29.1045 28.4526 29.083 28.3735 29.0381C27.3462 28.4483 26.7036 27.3477 26.6968 26.1651C26.6948 25.8887 26.9175 25.6641 27.1939 25.6621C27.4761 25.6201 27.6948 25.8828 27.6968 26.1592C27.7017 26.9873 28.1519 27.7578 28.8716 28.1709C29.1109 28.3086 29.1939 28.6143 29.0562 28.8535C28.9634 29.0147 28.7954 29.1045 28.6226 29.1045ZM31.4517 29.0957C31.2798 29.0957 31.1118 29.0069 31.0191 28.8467C30.8804 28.6074 30.9614 28.3018 31.2007 28.1631C31.9185 27.7471 32.3638 26.9737 32.3638 26.1446C32.3638 25.8682 32.5874 25.627 32.8638 25.627C33.1401 25.627 33.3638 25.834 33.3638 26.1104V26.1446C33.3638 27.3281 32.7271 28.4336 31.7026 29.0283C31.6235 29.0742 31.5376 29.0957 31.4517 29.0957ZM28.5943 24.2012C28.4234 24.2012 28.2564 24.1133 28.1636 23.9551C28.023 23.7168 28.1021 23.4102 28.3403 23.2705C29.3433 22.6787 30.6538 22.667 31.6685 23.2403C31.9087 23.376 31.9937 23.6817 31.8579 23.9219C31.7212 24.1631 31.4146 24.2461 31.1763 24.1113C30.4693 23.71 29.5493 23.7188 28.8482 24.1319C28.7681 24.1787 28.6812 24.2012 28.5943 24.2012Z" fill="#3B2F2F"/>
<path d="M25.0697 25.4932C24.9925 25.4932 24.9144 25.4746 24.8441 25.4395L20.5091 23.249C20.263 23.124 20.1644 22.8233 20.2884 22.5772L29.9378 3.47951C30.2904 2.78322 30.8939 2.26467 31.638 2.01955C32.3812 1.77639 33.1751 1.83498 33.8724 2.18654C34.5609 2.53517 35.0951 3.15627 35.3363 3.89162C35.5746 4.63967 35.513 5.42971 35.1654 6.12014L25.516 25.2188C25.4564 25.3369 25.3519 25.4268 25.2259 25.4678C25.1751 25.4854 25.1224 25.4932 25.0697 25.4932ZM21.4066 22.5821L24.849 24.3213L34.2728 5.66994C34.5023 5.21486 34.5414 4.6924 34.3851 4.19924C34.2269 3.71877 33.8753 3.30861 33.4212 3.07912C32.4691 2.59767 31.3089 2.98244 30.8304 3.93068L21.4066 22.5821Z" fill="#3B2F2F"/>
<path d="M33.2464 9.3096C33.1703 9.3096 33.0931 9.29203 33.0208 9.25589L28.6859 7.06546C28.4398 6.94046 28.3412 6.63968 28.4652 6.39359C28.5892 6.14749 28.8919 6.04984 29.1371 6.17289L33.472 8.36332C33.7181 8.48832 33.8177 8.7891 33.6927 9.03519C33.6048 9.20902 33.4291 9.3096 33.2464 9.3096Z" fill="#3B2F2F"/>
<path d="M21.3345 28.2588C21.1421 28.2588 20.9487 28.2139 20.7681 28.1231C20.3277 27.9014 20.064 27.4551 20.0777 26.96L20.2349 22.7842C20.2417 22.6133 20.3345 22.4581 20.481 22.3721C20.6284 22.2862 20.8081 22.2793 20.9605 22.3565L25.2954 24.5469C25.4478 24.6241 25.5493 24.7725 25.5669 24.9424C25.5845 25.1114 25.5142 25.2784 25.3814 25.3838L22.1167 27.9844C21.8853 28.1661 21.6109 28.2588 21.3345 28.2588ZM21.2056 23.6006L21.0777 26.9932C21.0728 27.1407 21.1743 27.2081 21.2183 27.2305C21.2622 27.253 21.3784 27.295 21.4966 27.2002L24.1489 25.0879L21.2056 23.6006Z" fill="#3B2F2F"/>
</svg>
