<svg width="53" height="53" viewBox="0 0 53 53" fill="none" xmlns="http://www.w3.org/2000/svg">
<path d="M49.9271 4.79242V48.2023C49.9271 49.4724 48.8972 50.5024 47.6372 50.5024H45.6372C46.8972 50.5024 47.9271 49.4724 47.9271 48.2023V4.79242C47.9271 3.5224 46.8972 2.50238 45.6372 2.50238H47.6372C48.8972 2.50238 49.9271 3.5224 49.9271 4.79242Z" fill="#3B2F2F"/>
<path d="M47.6367 51.002H45.6367C45.3604 51.002 45.1367 50.7783 45.1367 50.502C45.1367 50.2256 45.3604 50.002 45.6367 50.002C46.624 50.002 47.4268 49.1943 47.4268 48.2021V4.79199C47.4268 3.80469 46.624 3.00195 45.6367 3.00195C45.3604 3.00195 45.1367 2.77832 45.1367 2.50195C45.1367 2.22559 45.3604 2.00195 45.6367 2.00195H47.6367C49.1748 2.00195 50.4268 3.25391 50.4268 4.79199V48.2021C50.4268 49.7461 49.1748 51.002 47.6367 51.002ZM47.7803 3.00781C48.1836 3.49121 48.4268 4.11426 48.4268 4.79199V48.2021C48.4268 48.8838 48.1826 49.5107 47.7773 49.9961C48.6982 49.9248 49.4268 49.1475 49.4268 48.2021V4.79199C49.4268 3.85352 48.7002 3.08105 47.7803 3.00781Z" fill="#3B2F2F"/>
<path d="M25.4971 27.002H3.07715C2.80078 27.002 2.57715 26.7783 2.57715 26.502V4.79199C2.57715 3.25391 3.8291 2.00195 5.36719 2.00195H25.4971C25.7734 2.00195 25.9971 2.22559 25.9971 2.50195V26.502C25.9971 26.7783 25.7734 27.002 25.4971 27.002ZM3.57715 26.002H24.9971V3.00195H5.36719C4.37988 3.00195 3.57715 3.80469 3.57715 4.79199V26.002Z" fill="#3B2F2F"/>
<path d="M25.4971 51.002H5.36719C3.8291 51.002 2.57715 49.7461 2.57715 48.2021V26.502C2.57715 26.2256 2.80078 26.002 3.07715 26.002H25.4971C25.7734 26.002 25.9971 26.2256 25.9971 26.502V50.502C25.9971 50.7783 25.7734 51.002 25.4971 51.002ZM3.57715 27.002V48.2021C3.57715 49.1943 4.37988 50.002 5.36719 50.002H24.9971V27.002H3.57715Z" fill="#3B2F2F"/>
<path d="M45.6367 51.002H25.4971C25.2207 51.002 24.9971 50.7783 24.9971 50.502V26.502C24.9971 26.2256 25.2207 26.002 25.4971 26.002H47.9268C48.2031 26.002 48.4268 26.2256 48.4268 26.502V48.2021C48.4268 49.7461 47.1748 51.002 45.6367 51.002ZM25.9971 50.002H45.6367C46.624 50.002 47.4268 49.1943 47.4268 48.2021V27.002H25.9971V50.002Z" fill="#3B2F2F"/>
<path d="M30.0508 50.998C29.7744 50.998 29.5508 50.7744 29.5508 50.498V26.498C29.5508 26.2217 29.7744 25.998 30.0508 25.998C30.3271 25.998 30.5508 26.2217 30.5508 26.498V50.498C30.5508 50.7744 30.3271 50.998 30.0508 50.998Z" fill="#3B2F2F"/>
<path d="M34.4912 50.998C34.2148 50.998 33.9912 50.7744 33.9912 50.498V26.498C33.9912 26.2217 34.2148 25.998 34.4912 25.998C34.7676 25.998 34.9912 26.2217 34.9912 26.498V50.498C34.9912 50.7744 34.7676 50.998 34.4912 50.998Z" fill="#3B2F2F"/>
<path d="M38.9316 50.998C38.6553 50.998 38.4316 50.7744 38.4316 50.498V26.498C38.4316 26.2217 38.6553 25.998 38.9316 25.998C39.208 25.998 39.4316 26.2217 39.4316 26.498V50.498C39.4316 50.7744 39.208 50.998 38.9316 50.998Z" fill="#3B2F2F"/>
<path d="M43.3721 50.998C43.0957 50.998 42.8721 50.7744 42.8721 50.498V26.498C42.8721 26.2217 43.0957 25.998 43.3721 25.998C43.6484 25.998 43.8721 26.2217 43.8721 26.498V50.498C43.8721 50.7744 43.6484 50.998 43.3721 50.998Z" fill="#3B2F2F"/>
<path d="M47.9268 27.002H25.4971C25.2207 27.002 24.9971 26.7783 24.9971 26.502V2.50195C24.9971 2.22559 25.2207 2.00195 25.4971 2.00195H45.6367C47.1748 2.00195 48.4268 3.25391 48.4268 4.79199V26.502C48.4268 26.7783 48.2031 27.002 47.9268 27.002ZM25.9971 26.002H47.4268V4.79199C47.4268 3.80469 46.624 3.00195 45.6367 3.00195H25.9971V26.002Z" fill="#3B2F2F"/>
<path d="M47.9238 8.10156H25.499C25.2227 8.10156 24.999 7.87793 24.999 7.60156C24.999 7.3252 25.2227 7.10156 25.499 7.10156H47.9238C48.2002 7.10156 48.4238 7.3252 48.4238 7.60156C48.4238 7.87793 48.2002 8.10156 47.9238 8.10156Z" fill="#3B2F2F"/>
<path d="M47.9238 12.8262H25.499C25.2227 12.8262 24.999 12.6025 24.999 12.3262C24.999 12.0498 25.2227 11.8262 25.499 11.8262H47.9238C48.2002 11.8262 48.4238 12.0498 48.4238 12.3262C48.4238 12.6025 48.2002 12.8262 47.9238 12.8262Z" fill="#3B2F2F"/>
<path d="M47.9238 17.5498H25.499C25.2227 17.5498 24.999 17.3262 24.999 17.0498C24.999 16.7734 25.2227 16.5498 25.499 16.5498H47.9238C48.2002 16.5498 48.4238 16.7734 48.4238 17.0498C48.4238 17.3262 48.2002 17.5498 47.9238 17.5498Z" fill="#3B2F2F"/>
<path d="M47.9238 22.2744H25.499C25.2227 22.2744 24.999 22.0508 24.999 21.7744C24.999 21.498 25.2227 21.2744 25.499 21.2744H47.9238C48.2002 21.2744 48.4238 21.498 48.4238 21.7744C48.4238 22.0508 48.2002 22.2744 47.9238 22.2744Z" fill="#3B2F2F"/>
<path d="M33.792 8.10156C33.5156 8.10156 33.292 7.87793 33.292 7.60156V2.49805C33.292 2.22168 33.5156 1.99805 33.792 1.99805C34.0684 1.99805 34.292 2.22168 34.292 2.49805V7.60156C34.292 7.87793 34.0684 8.10156 33.792 8.10156Z" fill="#3B2F2F"/>
<path d="M38.377 12.8262C38.1006 12.8262 37.877 12.6025 37.877 12.3262V7.60156C37.877 7.3252 38.1006 7.10156 38.377 7.10156C38.6533 7.10156 38.877 7.3252 38.877 7.60156V12.3262C38.877 12.6025 38.6533 12.8262 38.377 12.8262Z" fill="#3B2F2F"/>
<path d="M38.377 22.2744C38.1006 22.2744 37.877 22.0508 37.877 21.7744V17.0498C37.877 16.7734 38.1006 16.5498 38.377 16.5498C38.6533 16.5498 38.877 16.7734 38.877 17.0498V21.7744C38.877 22.0508 38.6533 22.2744 38.377 22.2744Z" fill="#3B2F2F"/>
<path d="M33.7764 26.998C33.5 26.998 33.2764 26.7744 33.2764 26.498V21.7744C33.2764 21.498 33.5 21.2744 33.7764 21.2744C34.0527 21.2744 34.2764 21.498 34.2764 21.7744V26.498C34.2764 26.7744 34.0527 26.998 33.7764 26.998Z" fill="#3B2F2F"/>
<path d="M44.5059 17.5498C44.2295 17.5498 44.0059 17.3262 44.0059 17.0498V12.3262C44.0059 12.0498 44.2295 11.8262 44.5059 11.8262C44.7822 11.8262 45.0059 12.0498 45.0059 12.3262V17.0498C45.0059 17.3262 44.7822 17.5498 44.5059 17.5498Z" fill="#3B2F2F"/>
<path d="M28.917 17.5498C28.6406 17.5498 28.417 17.3262 28.417 17.0498V12.3262C28.417 12.0498 28.6406 11.8262 28.917 11.8262C29.1934 11.8262 29.417 12.0498 29.417 12.3262V17.0498C29.417 17.3262 29.1934 17.5498 28.917 17.5498Z" fill="#3B2F2F"/>
<path d="M25.4989 10.3447C25.3651 10.3447 25.2323 10.291 25.1337 10.1865L18.2694 2.83985C18.081 2.63771 18.0917 2.3213 18.2929 2.13282C18.496 1.94435 18.8114 1.95704 18.9999 2.15626L25.8642 9.50294C26.0526 9.70509 26.0419 10.0215 25.8407 10.21C25.7441 10.2998 25.621 10.3447 25.4989 10.3447Z" fill="#3B2F2F"/>
<path d="M25.5546 17.2119C25.4208 17.2119 25.288 17.1582 25.1894 17.0537L11.9081 2.83985C11.7196 2.63771 11.7304 2.3213 11.9316 2.13282C12.1337 1.94435 12.4501 1.95704 12.6386 2.15626L25.9198 16.3701C26.1083 16.5723 26.0976 16.8887 25.8964 17.0772C25.7997 17.167 25.6767 17.2119 25.5546 17.2119Z" fill="#3B2F2F"/>
<path d="M25.4989 23.5791C25.3652 23.5791 25.2323 23.5254 25.1337 23.4209L5.90324 2.83985C5.71476 2.63771 5.7255 2.3213 5.92667 2.13282C6.1298 1.94435 6.44523 1.95704 6.6337 2.15626L25.8642 22.7373C26.0527 22.9395 26.0419 23.2559 25.8407 23.4443C25.7441 23.5342 25.621 23.5791 25.4989 23.5791Z" fill="#3B2F2F"/>
<path d="M22.4638 26.998C22.33 26.998 22.1972 26.9443 22.0985 26.8398L2.70988 6.08984C2.5214 5.88769 2.53214 5.57128 2.73331 5.38281C2.93644 5.19433 3.25089 5.20605 3.44034 5.40624L22.829 26.1562C23.0175 26.3584 23.0068 26.6748 22.8056 26.8633C22.7089 26.9531 22.5859 26.998 22.4638 26.998Z" fill="#3B2F2F"/>
<path d="M16.372 26.9981C16.2382 26.9981 16.1054 26.9443 16.0068 26.8399L2.70792 12.6074C2.51945 12.4053 2.53019 12.0889 2.73136 11.9004C2.93449 11.7119 3.24894 11.7246 3.43839 11.9238L16.7372 26.1563C16.9257 26.3584 16.915 26.6748 16.7138 26.8633C16.6171 26.9531 16.4941 26.9981 16.372 26.9981Z" fill="#3B2F2F"/>
<path d="M10.2802 26.9981C10.1464 26.9981 10.0136 26.9443 9.91495 26.8399L2.70988 19.1289C2.5214 18.9268 2.53214 18.6104 2.73331 18.4219C2.93644 18.2334 3.25089 18.2461 3.44034 18.4453L10.6454 26.1563C10.8339 26.3584 10.8232 26.6748 10.622 26.8633C10.5253 26.9531 10.4023 26.9981 10.2802 26.9981Z" fill="#3B2F2F"/>
<path d="M18.6493 50.9385C18.5273 50.9385 18.4042 50.8935 18.3075 50.8037C18.1064 50.6152 18.0956 50.2988 18.2841 50.0967L25.1337 42.7656C25.3222 42.5664 25.6386 42.5547 25.8407 42.7422C26.0419 42.9307 26.0526 43.2471 25.8642 43.4492L19.0146 50.7803C18.9159 50.8848 18.7831 50.9385 18.6493 50.9385Z" fill="#3B2F2F"/>
<path d="M12.246 50.9981C12.1239 50.9981 12.0009 50.9531 11.9042 50.8633C11.703 50.6748 11.6923 50.3584 11.8808 50.1563L25.1337 35.9727C25.3222 35.7734 25.6386 35.7608 25.8407 35.9492C26.0419 36.1377 26.0527 36.4541 25.8642 36.6563L12.6112 50.8399C12.5126 50.9443 12.3798 50.9981 12.246 50.9981Z" fill="#3B2F2F"/>
<path d="M6.24015 50.998C6.11808 50.998 5.99503 50.9531 5.89835 50.8633C5.69718 50.6748 5.68644 50.3584 5.87491 50.1562L25.1337 29.5449C25.3222 29.3457 25.6386 29.334 25.8407 29.5215C26.0419 29.71 26.0527 30.0264 25.8642 30.2285L6.60538 50.8398C6.50675 50.9443 6.37394 50.998 6.24015 50.998Z" fill="#3B2F2F"/>
<path d="M3.07316 47.7197C2.95109 47.7197 2.82804 47.6748 2.73136 47.585C2.53019 47.3965 2.51945 47.0801 2.70792 46.878L22.0985 26.1563C22.288 25.9551 22.6034 25.9453 22.8056 26.1328C23.0068 26.3213 23.0175 26.6377 22.829 26.8399L3.43839 47.5615C3.33976 47.667 3.20695 47.7197 3.07316 47.7197Z" fill="#3B2F2F"/>
<path d="M3.07316 41.2002C2.95109 41.2002 2.82804 41.1553 2.73136 41.0654C2.53019 40.8769 2.51945 40.5605 2.70792 40.3584L16.0351 26.0967C16.2245 25.8975 16.54 25.8857 16.7421 26.0732C16.9433 26.2617 16.954 26.5781 16.7655 26.7803L3.43839 41.042C3.33976 41.1465 3.20695 41.2002 3.07316 41.2002Z" fill="#3B2F2F"/>
<path d="M3.09074 34.6924C2.96866 34.6924 2.84562 34.6475 2.74894 34.5576C2.54777 34.3691 2.53702 34.0527 2.7255 33.8506L9.91495 26.1562C10.1044 25.957 10.4198 25.9453 10.622 26.1328C10.8232 26.3213 10.8339 26.6377 10.6454 26.8398L3.45597 34.5342C3.35734 34.6387 3.22452 34.6924 3.09074 34.6924Z" fill="#3B2F2F"/>
</svg>
